PathFileType	4	(X/Y/Z)	C:/Users/beibeiliu/ov580/test_trc/User2\sequence.4_training_dense_right.trc
DataRate	CameraRate	NumFrames	NumMarkers	Units	OrigDataRate	OrigDataStartFrame	OrigNumFrames
120	120	22	19	mm	120	260	296
Frame#	Time	ThumbCMC			ThumbMCP			ThumbIP			ThumbTip			IndexMCP			IndexPIP			IndexTip			MiddleMCP			MiddlePIP			MiddleTip			RingMCP			RingPIP			RingTip			PinkyMCP			PinkyPIP			PinkyTip			BackHand1			BackHand2			BackHand3	
		X0	Y0	Z0	X1	Y1	Z1	X2	Y2	Z2	X3	Y3	Z3	X4	Y4	Z4	X5	Y5	Z5	X6	Y6	Z6	X7	Y7	Z7	X8	Y8	Z8	X9	Y9	Z9	X10	Y10	Z10	X11	Y11	Z11	X12	Y12	Z12	X13	Y13	Z13	X14	Y14	Z14	X15	Y15	Z15	X16	Y16	Z16	X17	Y17	Z17	X18	Y18	Z18	
259	2.15833	88.2395	-5.66604	82.3354	64.2261	-32.207	68.5089	49.1638	-58.1762	51.5754	51.6424	-83.458	39.3911	104.408	-24.5029	0.900631	102.538	-36.9058	-23.6329	102.055	-49.675	-48.9633	105.082	-62.1225	5.71364	76.7609	-82.5944	12.2156	68.9371	-82.8129	50.2233	110.612	-76.231	21.5032	88.3904	-94.5842	34.4478	77.0555	-78.8973	65.8048	121.933	-90.6392	40.6647	92.1528	-94.9995	59.9897	88.8902	-74.2399	80.9337	150.752	-37.1085	52.7591	160.466	-22.3945	86.9393	128.046	0.224849	65.6876	
260	2.16667	88.1285	-6.87044	83.1549	65.9535	-32.8384	70.973	49.9663	-61.1124	51.0649	54.7452	-88.3002	36.2571	110.005	-29.4332	1.44488	109.29	-40.5163	-20.7402	107.539	-53.4399	-48.0223	111.214	-58.6445	7.75529	85.0157	-86.6175	10.9775	71.9335	-83.8317	49.32	114.749	-78.1567	22.0817	90.6331	-95.7366	35.0359	81.2701	-81.9603	67.641	127.136	-90.8572	40.6693	99.9712	-98.0626	57.5073	94.9013	-76.8869	80.5108	152.795	-35.4	57.7561	160.143	-18.659	86.6235	131.334	-2.66524	61.7605	
261	2.175	90.1654	-9.98745	85.7828	66.721	-38.7632	69.5372	56.4626	-67.9895	49.7663	65.9477	-90.3755	38.0329	105.878	-26.4655	3.92733	101.579	-34.5497	-20.416	102.524	-50.9502	-45.2376	109.449	-58.0676	5.32854	89.7872	-88.2072	13.0268	75.2829	-85.0794	51.9502	118.435	-78.5264	20.9025	99.4137	-98.3067	33.4059	85.65	-84.4613	67.895	134.082	-83.9736	40.578	105.951	-99.6735	56.5062	98.3401	-74.4289	79.0843	153.035	-31.7409	54.9533	157.768	-14.1537	85.5824	127.961	-0.947032	65.9096	
262	2.18333	85.6785	-15.292	87.4971	66.116	-43.8846	77.7626	54.7052	-71.9191	55.775	66.1453	-94.6056	38.9485	95.7859	-23.5528	4.22379	92.8968	-33.8984	-18.3466	89.4172	-45.4915	-43.8855	109.553	-56.2933	7.35737	90.2146	-88.676	13.5549	82.1965	-90.045	50.662	121.308	-72.0589	19.8853	101.037	-96.1168	32.3563	93.488	-89.8426	67.9936	136.264	-81.4532	36.8759	112.207	-98.5389	51.4685	104.653	-81.7322	76.6556	152.556	-26.6007	57.7019	158.805	-9.66308	84.7403	123.651	0.579336	65.7281	
263	2.19167	82.8865	-23.0368	92.1079	66.6883	-52.4435	79.1738	60.8089	-80.6377	53.7257	69.7799	-98.8464	36.7008	81.1526	-20.9108	10.0733	71.0741	-28.1269	-14.0191	66.4565	-38.0217	-35.9851	103.559	-49.7676	8.32045	90.6491	-84.0817	9.39645	83.3235	-92.7541	49.2698	118.031	-66.757	15.7617	107.708	-96.2515	27.3883	101.132	-93.7338	62.4491	139.096	-73.8064	31.0003	118.162	-96.28	46.561	108.227	-83.2505	73.1789	143.923	-18.5867	55.3227	152.048	-3.84313	84.947	113.992	0.441355	73.8814	
264	2.2	79.0566	-30.0172	102.017	67.9702	-60.2982	84.2239	63.0186	-87.1948	54.3394	74.9945	-100.82	37.2932	67.6657	-23.0333	16.031	54.1316	-29.0472	-3.65273	48.0633	-37.0352	-28.9617	94.3325	-47.8185	7.83235	88.197	-84.4739	8.10341	90.0665	-94.8884	49.0939	115.996	-61.3747	13.2083	104.779	-92.0182	22.8478	106.219	-92.2069	61.3113	134.127	-65.2797	24.7708	119.862	-93.7155	38.1401	112.459	-81.6187	69.3582	138.509	-14.5376	54.9572	142.814	-2.4476	83.1583	105.379	-1.43642	77.6601	
265	2.20833	80.5499	-36.6786	100.152	66.7234	-67.0995	82.7145	62.6482	-91.7723	53.6314	74.2539	-103.755	30.4437	59.5976	-25.3602	22.7596	43.8248	-30.8559	2.36207	30.8065	-37.1614	-22.6548	84.1544	-47.6958	7.14436	82.8885	-82.1111	7.00774	94.0058	-95.4224	43.6319	107.269	-59.4465	11.8039	106.42	-92.4888	20.2376	106.422	-93.7317	53.0253	132.11	-62.9243	18.273	121.346	-90.3354	29.104	119.151	-85.4234	63.8198	128.605	-14.0956	51.0633	138.352	0.319159	86.6626	97.6881	-3.43221	80.2827	
266	2.21667	76.6667	-41.0953	101.857	68.4719	-69.7557	84.3625	65.996	-90.6168	55.8216	74.0115	-104.827	28.9042	57.4497	-26.9355	27.7478	36.4017	-33.9398	3.89883	26.224	-39.3024	-18.6913	81.8185	-47.1793	7.91062	80.3669	-83.2919	6.04299	89.4577	-96.9318	41.3048	102.606	-56.8037	10.865	107.458	-87.6937	14.4852	108.256	-92.9283	52.2733	127.727	-55.6287	19.5639	124.471	-90.6083	27.0714	115.727	-86.5573	60.7652	125.258	-10.845	53.4085	134.653	-2.3413	82.7535	97.6454	-6.82075	82.3831	
267	2.225	82.2603	-40.8205	103.861	69.2771	-70.0567	81.8575	67.1674	-92.0828	53.6492	77.7708	-103.031	29.9991	54.153	-28.3249	28.5208	43.8095	-34.0079	3.11653	29.0567	-39.9202	-24.7815	81.5046	-45.3969	8.84399	84.7461	-81.3917	4.67097	93.4138	-96.7885	38.7708	106.762	-55.739	9.2031	104.706	-87.7196	15.4993	107.275	-93.0292	52.9156	130.18	-55.7645	19.3841	126.406	-88.6083	25.7762	119.535	-85.404	60.9516	125.148	-10.8953	52.0082	134.84	0.262473	84.1361	94.8524	-7.07495	80.0028	
268	2.23333	79.3227	-40.2349	103.944	67.933	-72.2224	79.4269	69.8664	-92.0962	54.0969	80.298	-103.463	25.3943	63.1129	-26.078	19.0217	48.7266	-32.9932	-3.47394	41.2159	-38.4401	-28.3803	90.4937	-44.3141	6.83371	88.4072	-78.7307	2.17986	99.6397	-95.2651	40.5979	111.134	-55.5526	8.75676	109.391	-87.2712	15.0425	108.767	-93.9538	49.6156	137.333	-56.3308	19.9533	127.947	-89.5266	30.4597	123.331	-86.7259	63.526	126.583	-11.0873	53.9204	138.778	-1.31059	88.1164	96.6049	-5.52207	84.8394	
269	2.24167	81.9549	-39.3384	97.3166	71.6468	-69.2581	76.7582	72.7101	-93.4914	50.2979	86.284	-104.739	27.1881	70.8532	-25.9744	17.1978	67.67	-31.9479	-12.0572	65.8899	-37.225	-35.5119	96.3585	-43.6046	7.72471	100.369	-83.0465	3.03363	103.306	-95.9535	42.0291	121.756	-54.575	11.9394	117.406	-87.0627	14.8483	112.264	-95.9722	49.1696	145.261	-59.7658	23.1323	133.699	-89.8583	34.7265	125.491	-85.0218	66.0651	131.027	-9.88224	54.9938	137.165	0.608417	86.6513	97.6863	-4.12546	80.5947	
270	2.25	76.9041	-37.3081	94.651	69.613	-69.8667	76.7488	75.9036	-92.4544	52.489	92.1709	-105.014	30.9948	85.9555	-26.3951	12.564	86.1118	-33.4303	-16.2981	87.1046	-38.526	-40.0462	104.694	-48.0105	5.84808	106.642	-84.9729	3.81963	99.9281	-97.8492	44.29	127.803	-61.4878	13.94	120.332	-93.5214	22.4604	112.711	-97.2118	57.5736	149.674	-62.5942	27.9356	138.57	-93.0052	39.4417	123.207	-84.6776	67.1301	136.196	-12.9907	59.7717	138.085	1.14525	91.1905	103.086	-1.68098	79.3169	
271	2.25833	77.8559	-36.0798	93.6261	69.4231	-69.9255	74.7834	73.539	-96.0975	51.5119	93.2843	-107.201	31.324	90.8278	-29.6046	11.4252	93.4881	-36.2857	-16.3475	100.872	-43.1972	-44.9235	111.078	-52.2888	7.22253	111.201	-89.5226	6.51826	104.77	-99.8776	44.76	131.665	-63.5313	16.8463	127.426	-96.9745	26.115	114.203	-99.5239	58.652	149.888	-66.083	30.8746	137.236	-96.7706	45.0312	122.627	-88.7041	70.6634	137.74	-13.9167	55.1316	144.38	-2.22486	92.1542	103.636	-1.95214	75.6565	
272	2.26667	78.3393	-37.1188	91.1071	71.7335	-68.4491	74.533	76.1143	-94.2693	50.1993	90.0508	-109.43	34.8801	88.7383	-31.7566	12.3567	95.1167	-39.3528	-14.9285	98.107	-45.1203	-39.5905	114.144	-56.7989	6.5225	109.645	-93.8464	10.0112	101.881	-100.527	51.3429	129.503	-64.8432	17.6264	126.055	-100.392	27.63	113.766	-100.807	58.6841	149.936	-71.9366	30.9939	137.319	-99.4437	46.245	125.171	-89.4457	74.9828	137.402	-17.6029	57.3029	141.795	-1.46483	88.077	108.099	-4.78263	75.0102	
273	2.275	77.0772	-36.5298	96.6806	71.0794	-67.9205	75.9155	69.9436	-95.7712	55.4328	84.1987	-110.593	33.2003	84.1195	-31.6883	14.8836	82.7507	-39.5855	-11.4576	86.7754	-47.2654	-37.5976	108.785	-54.0822	9.20472	104.167	-94.1028	11.4253	100.373	-102.628	47.7466	127.161	-68.0479	17.056	122.335	-98.0755	26.5672	109.638	-99.1396	61.5072	148.415	-68.6125	31.1154	132.985	-96.8557	40.7359	123.028	-92.5165	70.6276	133.904	-14.516	60.3783	138.81	-4.55946	87.8344	103.612	-6.43069	73.635	
274	2.28333	77.6763	-38.1963	102.631	67.368	-68.7217	83.9805	65.8656	-96.469	53.2972	80.5799	-108.433	35.0872	70.5248	-32.2224	16.336	68.0843	-39.0215	-7.93188	61.2574	-43.8886	-32.9199	95.933	-55.5216	8.70605	96.5225	-92.1977	11.0199	94.3027	-103.455	48.8075	119.894	-68.0933	14.2906	113.705	-94.5533	22.0665	110.173	-98.9467	60.635	143.176	-66.2417	28.8089	130.234	-97.6871	39.565	123.64	-91.4041	70.0075	128.764	-14.3262	58.7194	140.432	-2.25692	91.7224	101.094	-8.28055	78.3108	
275	2.29167	75.9527	-41.5876	103.823	61.7476	-73.216	84.7201	64.0248	-94.1536	57.4413	72.2047	-108.794	35.4474	62.142	-32.0163	25.1999	48.2985	-38.1322	-1.17055	37.9958	-43.3958	-28.0857	88.8315	-52.8164	10.8153	85.9565	-90.7369	10.8725	92.0689	-102.645	45.4067	111.679	-61.9598	15.5654	109.595	-95.2784	22.1199	104.515	-98.5207	56.276	132.449	-67.8978	23.2328	120.551	-95.1643	36.0245	117.681	-92.4827	66.5284	125.357	-18.076	54.6766	132.745	-3.78134	89.4002	97.7574	-9.76533	82.1914	
276	2.3	74.9441	-42.0169	109.091	57.8596	-73.6407	90.3144	53.9885	-97.7301	62.8997	64.7564	-109.495	37.1561	52.0909	-31.3228	31.235	39.0348	-37.6129	6.08455	21.3516	-42.8624	-19.1645	76.0205	-50.6407	15.9162	76.8924	-90.3791	11.7972	87.5744	-103.023	45.0877	99.1057	-65.8063	13.9323	97.82	-96.4781	23.4015	100.517	-99.0458	55.3573	120.369	-65.5461	22.1319	112.611	-95.2283	34.5047	113.263	-93.0673	66.2871	117.077	-18.6628	55.6784	133.549	-6.75799	88.7206	93.3925	-10.6989	82.3078	
277	2.30833	72.8471	-42.6717	105.136	57.9485	-71.0832	89.532	52.1701	-96.4786	62.2069	62.6345	-107.902	43.1647	46.6928	-31.2996	30.8939	30.0115	-36.8863	11.5371	16.3349	-42.263	-17.0319	72.715	-50.4258	15.5841	70.2259	-87.0402	11.1597	84.5449	-101.183	50.2736	93.07	-64.7631	15.3381	94.7101	-94.3525	20.2559	94.1436	-97.7785	59.3673	119.025	-65.2061	23.3401	112.092	-97.5268	35.5647	108.595	-89.113	66.2919	115.962	-18.1869	56.2703	129.711	-5.36783	88.9215	87.383	-8.78012	85.3137	
278	2.31667	68.84	-42.9488	107.892	56.9874	-71.4189	87.9624	51.8186	-96.1702	62.3435	62.0359	-107.772	38.2137	44.9336	-29.4065	32.4372	30.4939	-35.1986	8.3355	20.9709	-40.3633	-14.4469	74.2957	-50.9306	14.5395	68.266	-85.5226	10.9784	78.067	-102.07	47.2033	92.0815	-63.8094	15.6759	91.9747	-94.1436	21.4335	94.9826	-98.0141	57.3312	118.948	-64.1039	24.0729	112.468	-96.4884	33.7294	108.326	-89.3825	69.9453	114.942	-18.208	57.4306	131.485	-5.03404	89.1293	86.4367	-9.16516	86.27	
279	2.325	69.8371	-41.0473	107.928	56.4289	-71.4941	88.9087	50.3458	-95.8439	62.9523	61.3298	-107.098	40.1191	53.5175	-28.0324	27.4121	40.544	-33.1837	1.91526	28.4639	-36.2905	-18.815	77.721	-49.2106	14.8365	73.809	-87.5051	11.5056	79.1862	-101.407	45.8896	96.3327	-61.8446	16.3132	94.5835	-93.8924	21.5926	95.4718	-100.072	55.7595	124.613	-65.9156	25.73	113.884	-96.1283	36.8239	105.365	-88.9349	69.9515	121.04	-16.0774	61.3836	127.718	-4.86731	90.6906	89.7237	-6.5606	85.6945	
280	2.33333	69.2528	-39.7104	107.769	58.2018	-68.3324	87.709	54.946	-92.6195	56.5727	63.2997	-106.863	35.0679	63.373	-26.6634	24.6366	51.6376	-30.3715	-4.51813	44.4033	-36.5537	-29.886	82.7755	-51.5136	10.6474	80.4931	-85.0611	9.83086	81.8186	-100.116	49.5043	100.485	-64.0923	16.7551	96.5398	-92.5474	21.4289	97.3357	-99.4786	59.2701	126.259	-64.6983	28.4437	115.042	-97.2425	40.3171	105.437	-86.5279	71.5001	120.436	-16.9655	59.0607	131.233	-6.0349	91.3768	90.1721	-8.04181	83.181	
